# xmcd
#
# Track frame offsets:
#	150
#	14675
#	33808
#	52374
#	66156
#	80349
#	93656
#	112407
#	133294
#	149487
#	164125
#	180067
#	197402
#	213145
#	225662
#	241678
#	254979
#	269438
#	293560
#	309808
#	322671
#	340813
#
# Disc length: 4720 seconds
#
# Revision: 2
# Processed by: cddbd v1.5.2PL0 Copyright (c) Steve Scherf et al.
# Submitted via: audiograbber 1.83.01
#
DISCID=45126e16
DTITLE=John Williamson - 40 Years True Blue - Absolute Greatest [Disc 1]
DYEAR=2010
DGENRE=Country
TTITLE0=Mallee Boy
TTITLE1=Raining On The Rock (Live) (with Warren H. Williams)
TTITLE2=Galleries Of Pink Galahs
TTITLE3=Hillbilly Road
TTITLE4=Flower On The Water
TTITLE5=Rip Rip Woodchip
TTITLE6=A Bushman Can't Survive
TTITLE7=Wrinkles
TTITLE8=Wintergreen
TTITLE9=Australia Is Another Word For Free (with Warren H. Williams and Amos Morr
TTITLE9=is)
TTITLE10=Salisbury Street
TTITLE11=Cootamundra Wattle
TTITLE12=Hawkesbury River Lovin'
TTITLE13=You And My Guitar
TTITLE14=Three Sons
TTITLE15=Cydi
TTITLE16=Chandelier Of Stars
TTITLE17=Boogie With M'Baby (Live)
TTITLE18=Diggers Of The Anzac (This Is Gallipoli)
TTITLE19=Old Man Emu
TTITLE20=True Blue
TTITLE21=Island Of Oceans (with Shannon Noll)
EXTD=
EXTT0=
EXTT1=
EXTT2=
EXTT3=
EXTT4=
EXTT5=
EXTT6=
EXTT7=
EXTT8=
EXTT9=
EXTT10=
EXTT11=
EXTT12=
EXTT13=
EXTT14=
EXTT15=
EXTT16=
EXTT17=
EXTT18=
EXTT19=
EXTT20=
EXTT21=
PLAYORDER=
